<svg width="32" height="32" viewBox="0 0 32 32" fill="none" xmlns="http://www.w3.org/2000/svg"><path d="M13.1698 4c1.7658-.00083 3.4943.47909 4.9775 1.38204 1.4833.90294 2.6581 2.19047 3.3833 3.70774.7252 1.51722.9699 3.19962.7046 4.84482-.2653 1.6452-1.0293 3.1832-2.2001 4.4289L29 27.9531 27.7558 29l-8.9426-9.5477c-1.1503.8479-2.499 1.4245-3.9336 1.6818-1.4346.2573-2.9137.1879-4.3141-.2026-1.4004-.3905-2.68151-1.0906-3.73663-2.0421-1.05513-.9515-1.85373-2.1269-2.32928-3.4281-.47555-1.3013-.61429-2.6908-.40466-4.0528.20963-1.362.76156-2.6571 1.60982-3.77739.84826-1.1203 1.96829-2.03337 3.2668-2.66316 1.29855-.62979 2.73795-.95806 4.19825-.95748V4Zm0 15.7035c1.9888 0 3.896-.7445 5.3023-2.0697 1.4062-1.3253 2.1962-3.1227 2.1962-4.9969 0-1.8741-.79-3.67155-2.1962-4.99679-1.4063-1.32524-3.3135-2.06976-5.3023-2.06976-1.9887 0-3.89596.74452-5.3022 2.06976S5.67134 10.7628 5.67134 12.6369c0 1.8742.79002 3.6716 2.19626 4.9969 1.40624 1.3252 3.3135 2.0697 5.3022 2.0697Z" fill="currentColor"/></svg>