<svg width="32" height="32" viewBox="0 0 32 32" fill="none" xmlns="http://www.w3.org/2000/svg"><mask id="a" fill="#fff"><path fill-rule="evenodd" clip-rule="evenodd" d="M7.35104 28.3667 20.4051 15.7052 7.35104 3.96413l1.66487-1.63074L22.2939 15.3134l.0173.0172c.2223.226.3463.5244.3463.8348s-.124.6088-.3463.8348l-.0173.0172-13.27543 12.98-1.66999-1.6307h.00256Z"/><path d="M7.35104 3.96413c-.22341-.21799-.34848-.51064-.34848-.81537 0-.30473.12507-.59737.34848-.81537.10851-.10555.23802-.18941.38096-.24666C7.87494 2.02949 8.02843 2 8.18348 2c.15504 0 .30853.02949.45147.08673.14294.05725.27245.14111.38096.24666L7.35104 3.96413ZM9.01847 29.9974c-.10859.1063-.23842.1908-.38183.2485-.14342.0577-.2975.0874-.45316.0874-.15567 0-.30975-.0297-.45316-.0874-.14342-.0577-.27325-.1422-.38184-.2485C7.12507 29.7794 7 29.4868 7 29.1821c0-.3048.12507-.5974.34848-.8154l1.66999 1.6307Z"/></mask><path fill-rule="evenodd" clip-rule="evenodd" d="M7.35104 28.3667 20.4051 15.7052 7.35104 3.96413l1.66487-1.63074L22.2939 15.3134l.0173.0172c.2223.226.3463.5244.3463.8348s-.124.6088-.3463.8348l-.0173.0172-13.27543 12.98-1.66999-1.6307h.00256Z" fill="#000"/><path d="M7.35104 3.96413c-.22341-.21799-.34848-.51064-.34848-.81537 0-.30473.12507-.59737.34848-.81537.10851-.10555.23802-.18941.38096-.24666C7.87494 2.02949 8.02843 2 8.18348 2c.15504 0 .30853.02949.45147.08673.14294.05725.27245.14111.38096.24666L7.35104 3.96413ZM9.01847 29.9974c-.10859.1063-.23842.1908-.38183.2485-.14342.0577-.2975.0874-.45316.0874-.15567 0-.30975-.0297-.45316-.0874-.14342-.0577-.27325-.1422-.38184-.2485C7.12507 29.7794 7 29.4868 7 29.1821c0-.3048.12507-.5974.34848-.8154l1.66999 1.6307Z" fill="#000"/><path d="m22.3112 15.3306-.3335.3345-.0032-.0033.3367-.3312Zm0 1.6696-.3367-.3312.0033-.0032.3334.3344Zm.3334-2.004.8372.8348-.6668.6688-.8372-.8348.6668-.6688Zm.8372 1.5036-.8372.8348-.6668-.6688.8372-.8348.6668.6688Zm-.8339.8315c-.0079.008-.0158.0159-.0238.0237l-.6603-.6752c.0036-.0036.0072-.0071.0107-.0107l.6734.6622Zm.1671-1.5003.8516-.8491.6668.6688-.8516.8491-.6668-.6688Zm.6668 0 .8516.8491-.6668.6688-.8516-.8491.6668-.6688Zm-.8577-.8552c.008.0078.0159.0157.0238.0237l-.6734.6623a.53974.53974 0 0 0-.0107-.0107l.6603-.6753ZM9.34635 2.67074 7.68148 4.30149l-.66088-.67471 1.66488-1.63074.66087.6747ZM7.6784 28.0288l1.66999 1.6308-.65983.6757-1.67-1.6307.65984-.6758Zm-.32736.3379.65755.6779-.27477.2665h-.38278v-.9444ZM20.4051 15.7052l.6316-.7022.7518.6761-.7258.704-.6576-.6779ZM7.35104 3.96413l-.63157.70221-.01428-.01284-.01374-.01341.65959-.67596Zm-.34848-.81537h-.94444.94444Zm.34848-.81537-.65959-.67596.00105-.00102.65854.67698ZM8.18348 2v.94444V2Zm.83243.33339.65854-.67698.00166.00162-.6602.67536ZM22.2939 15.3134l.6602-.6754.0066.0066-.6668.6688Zm0 1.704.6669.6688-.0066.0065-.6603-.6753Zm-13.27543 12.98-.66066-.6749.0004-.0004.66026.6753Zm-1.66999 0 .65959-.6759.00107.001-.66066.6749ZM7 29.1821h.94445H7Zm.34848-.8154-.65959-.676.27515-.2684h.38444v.9444ZM22.3112 15.3306l.6668-.6688.0065.0066-.6733.6622Zm0 1.6696.6734.6623-.0065.0065-.6669-.6688ZM6.69349 27.6888 19.7475 15.0272l1.3152 1.3559L8.00859 29.0446l-1.3151-1.3558ZM19.7735 16.4074 6.71947 4.66634l1.26314-1.40441L21.0367 15.003l-1.2632 1.4044ZM6.69145 4.64009c-.40057-.39087-.63333-.92522-.63333-1.49133h1.88889c0 .04336.01738.0943.06362.13942L6.69145 4.64009Zm-.63333-1.49133c0-.5661.23276-1.10046.63333-1.49133l1.31918 1.35192c-.04624.04512-.06362.09605-.06362.13941H6.05812Zm.63438-1.49235c.19849-.19308.43291-.34411.68837-.44642l.70227 1.75349c-.03042.01218-.05503.02886-.07356.04689L6.6925 1.65641Zm.68837-.44642c.2554-.10229.52813-.15443.80261-.15443v1.88888c-.03562 0-.06986.00683-.10034.01904l-.70227-1.75349Zm.80261-.15443c.27447 0 .5472.05214.8026.15443l-.70227 1.75349c-.03048-.01221-.06472-.01904-.10033-.01904V1.05556Zm.8026.15443c.25546.10231.48988.25334.68837.44642L8.35737 3.01037c-.01853-.01803-.04314-.03471-.07356-.04689l.70227-1.75349Zm.69003.44804L22.9541 14.6381l-1.3204 1.3507L8.35571 3.00875l1.3204-1.35072ZM22.9542 17.6927l-13.27546 12.98-1.32053-1.3506 13.27539-12.98 1.3206 1.3506ZM9.67914 30.6723c-.19868.1945-.43372.3467-.69004.4498l-.70493-1.7524c.03051-.0123.05514-.0291.07364-.0472l1.32133 1.3498Zm-.69004.4498c-.25627.1031-.53007.1557-.80562.1557v-1.8889c.03577 0 .07014-.0069.10069-.0192l.70493 1.7524Zm-.80562.1557c-.27556 0-.54936-.0526-.80563-.1557l.70493-1.7524c.03056.0123.06492.0192.1007.0192v1.8889Zm-.80563-.1557c-.25632-.1031-.49136-.2553-.69004-.4498l1.32133-1.3498c.01851.0182.04314.0349.07364.0472l-.70493 1.7524Zm-.68896-.4487c-.40057-.3909-.63333-.9252-.63333-1.4913h1.88889c0 .0433.01738.0943.06362.1394l-1.31918 1.3519Zm-.63333-1.4913c0-.5661.23276-1.1005.63333-1.4914l1.31918 1.352c-.04624.0451-.06362.096-.06362.1394H6.05556Zm1.29292-1.7598h.00256v1.8888h-.00256v-1.8888ZM21.7131 16.1654c0-.056-.022-.1184-.0753-.1725l1.3467-1.3245c.3914.3979.6174.9323.6174 1.497h-1.8888Zm-.0753.1725c.0533-.0541.0753-.1165.0753-.1725h1.8888c0 .5648-.226 1.0991-.6174 1.497l-1.3467-1.3245Zm-.0108.0107.0173-.0172 1.3338 1.3376-.0173.0172-1.3338-1.3376Zm1.3337-1.704.0173.0172-1.3336 1.3377-.0173-.0173 1.3336-1.3376Z" fill="currentColor" mask="url(#a)"/></svg>