<svg width="32" height="32" viewBox="0 0 32 32" fill="none" xmlns="http://www.w3.org/2000/svg"><path d="M7.89957 28.2522c-.15252 0-.30504-.0714-.45757-.1427-.30504-.214-.3813-.4993-.30504-.7847l2.97414-8.56-7.77855-5.3501c-.30504-.214-.3813-.4993-.30504-.7846.07626-.2854.3813-.4994.7626-.4994h9.68509l2.8979-8.63136C15.4494 3.214 15.7544 3 16.1357 3s.6101.214.7626.49934l2.9742 8.63136h9.6851c.305 0 .61.1427.7626.428.1525.2854 0 .642-.3051.7847l-7.7786 5.2787 2.9742 8.5601c.0763.2853 0 .642-.305.7846-.3051.1427-.6101.214-.9152 0l-7.8548-5.136-7.77857 5.2787c-.15252.0713-.30504.1427-.45756.1427Zm8.23613-7.0621c.1525 0 .305.0714.4576.1427l6.3296 4.3514-2.4403-6.9908c-.0763-.2853 0-.642.305-.7846l6.3296-4.3514h-7.8548c-.3051 0-.6101-.214-.7626-.4993l-2.3641-6.99075-2.4403 6.99075c-.0763.2853-.3813.4993-.7626.4993H5.07793l6.32967 4.3514c.305.214.3813.4993.305.7846l-2.36408 6.9908 6.32958-4.3514c.1526-.0713.3051-.1427.4576-.1427Z" fill="#000"/><path d="M16.1357 21.1901c.1525 0 .305.0714.4576.1427l6.3296 4.3514-2.4403-6.9908c-.0763-.2853 0-.642.305-.7846l6.3296-4.3514h-7.8548c-.3051 0-.6101-.214-.7626-.4993l-2.3641-6.99075-2.4403 6.99075c-.0763.2853-.3813.4993-.7626.4993H5.07793l6.32967 4.3514c.305.214.3813.4993.305.7846l-2.36408 6.9908 6.32958-4.3514c.1526-.0713.3051-.1427.4576-.1427Z" fill="currentColor"/></svg>