<svg width="32" height="32" viewBox="0 0 32 32" fill="none" xmlns="http://www.w3.org/2000/svg"><path d="M7.89972 28.2529c-.15253 0-.30505-.0714-.45758-.1427-.30505-.214-.38131-.4994-.30505-.7847l2.97421-8.5603-7.77874-5.3502c-.30505-.214-.38132-.4993-.30505-.7847.07626-.2853.38131-.4993.76262-.4993h9.68537l2.8979-8.63165C15.4497 3.21401 15.7548 3 16.1361 3c.3813 0 .6101.21401.7626.49935l2.9742 8.63165h9.6854c.305 0 .6101.1427.7626.428.1525.2853 0 .642-.3051.7847l-7.7787 5.2788 2.9742 8.5603c.0763.2854 0 .642-.305.7847-.3051.1427-.6101.214-.9152 0l-7.855-5.1362-7.77881 5.2789c-.15252.0713-.30505.1427-.45757.1427Zm8.23638-7.0623c.1525 0 .305.0714.4575.1427l6.3298 4.3515-2.4404-6.9909c-.0762-.2854 0-.6421.3051-.7847l6.3298-4.3515h-7.8551c-.305 0-.6101-.214-.7626-.4994l-2.3641-6.99086-2.4404 6.99086c-.0763.2854-.3813.4994-.7627.4994H5.07801l6.32979 4.3515c.305.214.3813.4993.305.7847l-2.36409 6.9909 6.32979-4.3515c.1525-.0713.305-.1427.4576-.1427Z" fill="currentColor"/></svg>