<svg width="32" height="32" viewBox="0 0 32 32" fill="none" xmlns="http://www.w3.org/2000/svg"><path d="M12.8202 27.2157c0 .3529-.1055.6979-.3031.9913-.1977.2934-.4786.5221-.8073.6572-.3286.135-.6903.1704-1.0392.1015-.3489-.0688-.6694-.2388-.921-.4883-.25155-.2496-.42287-.5675-.49227-.9136a1.77089 1.77089 0 0 1 .10236-1.0309c.13614-.3261.36669-.6048.66251-.8008.2958-.1961.6435-.3007.9993-.3007.477 0 .9346.188 1.2719.5226.3373.3346.5268.7885.5268 1.2617Zm11.5633-1.7843c-.3558 0-.7035.1046-.9993.3007-.2958.196-.5264.4747-.6625.8008a1.7705 1.7705 0 0 0-.1024 1.0309c.0694.3461.2407.664.4923.9136.2516.2495.5721.4195.921.4883.3489.0689.7106.0335 1.0392-.1015.3287-.1351.6096-.3638.8073-.6572.1976-.2934.3031-.6384.3031-.9913 0-.4732-.1895-.9271-.5268-1.2617-.3373-.3346-.7949-.5226-1.2719-.5226Zm5.5867-16.35862L26.5786 20.8487c-.1705.5849-.5275 1.0992-1.0174 1.4659-.49.3666-1.0866.5658-1.7004.5678H11.5442c-.6138-.002-1.2104-.2012-1.70039-.5679-.48999-.3666-.84696-.881-1.01741-1.4659L5.43862 9.08642a.93416.93416 0 0 1-.00771-.02651L4.17926 4.71434a.25594.25594 0 0 0-.09248-.1333.25935.25935 0 0 0-.15459-.05163H1.77088c-.20445 0-.40052-.08057-.54509-.22398C1.08122 4.16202 1 3.96752 1 3.76471c0-.20282.08122-.39732.22579-.54073C1.37036 3.08057 1.56643 3 1.77088 3h2.16131c.39058.00123.77024.128 1.08207.36132.31183.23332.53903.56061.64754.93282l1.09568 3.8039H29.229a.77585.77585 0 0 1 .3438.08023.76989.76989 0 0 1 .2717.22392.76206.76206 0 0 1 .1425.32061.75891.75891 0 0 1-.0167.34998h-.0001Zm-1.7631.55467H7.19791L10.3089 20.4285c.0775.2659.2397.4997.4624.6664.2227.1666.4939.2572.7729.258h12.3166c.279-.0008.5501-.0914.7728-.258.2227-.1666.385-.4004.4624-.6662l3.1111-10.80125Z" fill="currentColor"/></svg>