<svg width="32" height="32" viewBox="0 0 32 32" fill="none" xmlns="http://www.w3.org/2000/svg"><path d="M21.1105 15.9988 8.35872 28.0565l-.04377.0408c-.10062.1046-.17901.2244-.23243.3531-.05405.1303-.08252.2698-.08252.4119 0 .3011.12781.5903.3561.8058.11097.105.24364.1885.39019.2455.14655.057.30401.0864.46307.0864.14864 0 .29587-.0256.4341-.0755a1.02269 1.02269 0 0 0 .02898-.0109c.14655-.057.27922-.1405.39016-.2455l13.5659-12.8274.0176-.017c.1337-.1315.2326-.2877.2914-.4566.0231-.0665.0401-.135.0504-.2047.0066-.0445.0106-.0896.0117-.1349a1.08862 1.08862 0 0 0-.0005-.0731 1.10701 1.10701 0 0 0-.0112-.1193c-.0004-.0024-.0007-.0048-.0011-.0072-.0379-.2439-.1561-.4726-.3407-.6541l-.0176-.017L10.06 2.32947c-.11087-.10431-.24322-.18718-.38929-.24376a1.2526 1.2526 0 0 0-.02854-.01065l-.00232-.00083a1.23259 1.23259 0 0 0-.0244-.00844C9.48541 2.02231 9.34799 2 9.20936 2c-.15843 0-.31528.02914-.46134.08571-.14607.05658-.27842.13945-.3893.24376-.22829.21543-.3561.50463-.3561.80578 0 .14207.02844.28147.08246.41173v.00001a1.10877 1.10877 0 0 0 .00998.02329c.05349.12104.1293.2337.22506.33264a1.1972 1.1972 0 0 0 .0386.03811L21.1105 15.9988Z" fill="currentColor"/><path d="M9.64217 2.07506a1.25835 1.25835 0 0 0-.00232-.00083l.00232.00083ZM9.67244 29.9136Z" fill="currentColor"/></svg>