<svg width="32" height="32" viewBox="0 0 32 32" fill="none" xmlns="http://www.w3.org/2000/svg">
<path d="M16 28L15.5588 27.6128C6.07353 19.4815 3.5 16.6162 3.5 11.9697C3.5 8.09764 6.44118 5 10.1176 5C13.1324 5 14.8235 6.78115 16 8.17508C17.1765 6.78115 18.8676 5 21.8824 5C25.5588 5 28.5 8.09764 28.5 11.9697C28.5 16.6162 25.9265 19.4815 16.4412 27.6128L16 28ZM10.1176 6.54882C7.25 6.54882 4.97059 8.94949 4.97059 11.9697C4.97059 15.9192 7.32353 18.5522 16 25.9865C24.6765 18.5522 27.0294 15.9192 27.0294 11.9697C27.0294 8.94949 24.75 6.54882 21.8824 6.54882C19.3088 6.54882 17.9118 8.17508 16.8088 9.49158L16 10.4983L15.1912 9.49158C14.0882 8.17508 12.6912 6.54882 10.1176 6.54882Z" fill="black"/>
</svg>
