<svg width="32" height="32" viewBox="0 0 32 32" fill="none" xmlns="http://www.w3.org/2000/svg"><path fill-rule="evenodd" clip-rule="evenodd" d="M10.5 11.25c0-3.17564 2.5744-5.75 5.75-5.75S22 8.07436 22 11.25c0 3.1756-2.5744 5.75-5.75 5.75s-5.75-2.5744-5.75-5.75Zm9.3014 6.3221C22.009 16.3293 23.5 13.9638 23.5 11.25 23.5 7.24594 20.2541 4 16.25 4S9 7.24594 9 11.25c0 2.7138 1.491 5.0793 3.6986 6.3221C8.22568 19.059 5 23.2778 5 28.25h1.5c0-5.3848 4.3652-9.75 9.75-9.75S26 22.8652 26 28.25h1.5c0-4.9722-3.2257-9.191-7.6986-10.6779Z" fill="currentColor"/></svg>