<svg width="32" height="32" viewBox="0 0 32 32" fill="none" xmlns="http://www.w3.org/2000/svg"><path fill-rule="evenodd" clip-rule="evenodd" d="M16 4c-3.2585 0-3.6674.01389-4.9477.07223-1.27753.05835-2.14984.26208-2.91322.55935-.80057.30249-1.52574.77654-2.12493 1.38909-.61068.6014-1.08321 1.32924-1.38461 2.13273-.29631.76493-.49846 1.64006-.55754 2.9217C4.01385 12.3596 4 12.7698 4 16.0388s.01385 3.6793.072 4.9637c.05815 1.2817.26123 2.1568.55754 2.9218.30738.7918.71723 1.4632 1.38461 2.1327.59919.6126 1.32436 1.0866 2.12493 1.3891.76338.2963 1.63569.5001 2.91322.5593 1.2803.0584 1.6892.0723 4.9477.0723s3.6674-.0139 4.9477-.0723c1.2775-.0583 2.1498-.262 2.9123-.5593.8009-.3023 1.5264-.7764 2.1258-1.3891.6107-.6014 1.0833-1.3292 1.3847-2.1327.2953-.765.4984-1.6401.5575-2.9218.0582-1.2844.072-1.6947.072-4.9637s-.0138-3.6792-.072-4.9637c-.0582-1.28164-.2612-2.15677-.5585-2.9217-.3011-.80341-.7733-1.53124-1.3837-2.13273-.5994-.61268-1.3249-1.08674-2.1258-1.38909-.7625-.29634-1.6348-.50008-2.9123-.55935C19.6674 4.01389 19.2585 4 16 4Zm0 2.16884c3.204 0 3.5834.01297 4.8489.07038 1.1696.05372 1.8056.25004 2.2283.41488.5603.21855.96.47878 1.38.90014.42.42135.6794.82234.8973 1.38446.1643.42414.36 1.06127.4135 2.2355.0572 1.2687.0702 1.6503.0702 4.8646 0 3.2144-.013 3.595-.0702 4.8647-.0535 1.1742-.2492 1.8113-.4135 2.2355-.1923.5229-.4988.996-.8973 1.3844a3.71444 3.71444 0 0 1-1.38.9002c-.4227.1648-1.0587.3611-2.2283.4149-1.2646.0574-1.6449.0703-4.8489.0703-3.204 0-3.5843-.0129-4.8489-.0703-1.17048-.0538-1.80556-.2501-2.22833-.4149a3.71524 3.71524 0 0 1-1.38-.9002c-.39837-.3884-.70495-.8615-.89723-1.3844-.16431-.4242-.36-1.0613-.41354-2.2355-.05723-1.2688-.07015-1.6503-.07015-4.8647 0-3.2143.01292-3.5949.07015-4.8646.05354-1.17423.24923-1.81136.41354-2.2355.21784-.56212.47723-.96311.89723-1.38446a3.71693 3.71693 0 0 1 1.38-.90014c.42277-.16484 1.05785-.36116 2.22833-.41488 1.2646-.05741 1.6449-.07038 4.8489-.07038" fill="currentColor"/><path d="M16 6.16884c3.204 0 3.5834.01297 4.8489.07038 1.1696.05372 1.8056.25004 2.2283.41488.5603.21855.96.47878 1.38.90014.42.42135.6794.82234.8973 1.38446.1643.42414.36 1.06127.4135 2.2355.0572 1.2687.0702 1.6503.0702 4.8646 0 3.2144-.013 3.595-.0702 4.8647-.0535 1.1742-.2492 1.8113-.4135 2.2355-.1923.5229-.4988.996-.8973 1.3844a3.71444 3.71444 0 0 1-1.38.9002c-.4227.1648-1.0587.3611-2.2283.4149-1.2646.0574-1.6449.0703-4.8489.0703-3.204 0-3.5843-.0129-4.8489-.0703-1.17048-.0538-1.80556-.2501-2.22833-.4149a3.71524 3.71524 0 0 1-1.38-.9002c-.39837-.3884-.70495-.8615-.89723-1.3844-.16431-.4242-.36-1.0613-.41354-2.2355-.05723-1.2688-.07015-1.6503-.07015-4.8647 0-3.2143.01292-3.5949.07015-4.8646.05354-1.17423.24923-1.81136.41354-2.2355.21784-.56212.47723-.96311.89723-1.38446a3.71693 3.71693 0 0 1 1.38-.90014c.42277-.16484 1.05785-.36116 2.22833-.41488 1.2646-.05741 1.6449-.07038 4.8489-.07038M16 4c-3.2585 0-3.6674.01389-4.9477.07223-1.27753.05835-2.14984.26208-2.91322.55935-.80057.30249-1.52574.77654-2.12493 1.38909-.61068.6014-1.08321 1.32924-1.38461 2.13273-.29631.76493-.49846 1.64006-.55754 2.9217C4.01385 12.3596 4 12.7698 4 16.0388s.01385 3.6793.072 4.9637c.05815 1.2817.26123 2.1568.55754 2.9218.30738.7918.71723 1.4632 1.38461 2.1327.59919.6126 1.32436 1.0866 2.12493 1.3891.76338.2963 1.63569.5001 2.91322.5593 1.2803.0584 1.6892.0723 4.9477.0723s3.6674-.0139 4.9477-.0723c1.2775-.0583 2.1498-.262 2.9123-.5593.8009-.3023 1.5264-.7764 2.1258-1.3891.6107-.6014 1.0833-1.3292 1.3847-2.1327.2953-.765.4984-1.6401.5575-2.9218.0582-1.2844.072-1.6947.072-4.9637s-.0138-3.6792-.072-4.9637c-.0582-1.28164-.2612-2.15677-.5585-2.9217-.3011-.80341-.7733-1.53124-1.3837-2.13273-.5994-.61268-1.3249-1.08674-2.1258-1.38909-.7625-.29634-1.6348-.50008-2.9123-.55935C19.6674 4.01389 19.2585 4 16 4Z" stroke="#E8E8E8" stroke-width=".70588"/><path fill-rule="evenodd" clip-rule="evenodd" d="M15.9996 9.55658c-1.7137 0-3.3572.68292-4.569 1.89862-1.2117 1.2157-1.89251 2.8646-1.89251 4.5838 0 1.7193.68081 3.3681 1.89251 4.5838 1.2118 1.2157 2.8553 1.8987 4.569 1.8987 1.7137 0 3.3572-.683 4.569-1.8987 1.2118-1.2157 1.8926-2.8645 1.8926-4.5838 0-1.7192-.6808-3.3681-1.8926-4.5838-1.2118-1.2157-2.8553-1.89862-4.569-1.89862Zm0 10.64972c-1.1016 0-2.1582-.439-2.9372-1.2206-.779-.7815-1.2166-1.8414-1.2166-2.9467 0-1.1052.4376-2.1652 1.2166-2.9467.779-.7815 1.8356-1.2206 2.9372-1.2206 1.1017 0 2.1582.4391 2.9372 1.2206.779.7815 1.2167 1.8415 1.2167 2.9467 0 1.1053-.4377 2.1652-1.2167 2.9467-.779.7816-1.8355 1.2206-2.9372 1.2206Zm8.0308-10.55712c0 .19458-.0382.38722-.1124.56702a1.4823 1.4823 0 0 1-.3202.4807 1.47625 1.47625 0 0 1-.4791.3212 1.47237 1.47237 0 0 1-1.1304 0 1.47773 1.47773 0 0 1-.4792-.3212 1.48202 1.48202 0 0 1-.3201-.4807 1.48458 1.48458 0 0 1-.1125-.56702c0-.39297.1557-.76984.4326-1.04772.277-.27787.6527-.43398 1.0444-.43398.3917 0 .7673.15611 1.0443.43398.277.27788.4326.65475.4326 1.04772Z" fill="currentColor" stroke="#E8E8E8" stroke-width=".70588"/></svg>