<svg width="170" height="61" viewBox="0 0 170 61" fill="none" xmlns="http://www.w3.org/2000/svg">
<path d="M39.572 44.269C38.0262 45.204 36.4107 45.9948 34.8057 46.8067C30.6655 48.9623 26.1912 50.3887 21.5756 51.0245C18.1216 51.5011 14.6151 51.43 11.183 50.8136C9.68935 50.5359 8.19574 50.2864 6.8031 49.6326C2.85844 47.7557 0.779916 44.5326 0.177598 40.2586C-0.355089 36.4978 0.365605 32.8775 1.60506 29.3627C3.48164 23.9991 6.51064 19.3174 10.1942 15.0469C14.3845 10.1562 19.4163 6.07073 25.0467 2.98762C27.5848 1.60279 30.2691 0.558888 33.1658 0.217952C34.1708 0.0629481 35.1984 0.171892 36.1496 0.534285C36.779 0.771968 37.302 1.23135 37.6223 1.82773C38.1167 2.79079 37.8416 3.58514 36.8633 3.99989C36.6369 4.10838 36.4044 4.20344 36.167 4.28458C31.4111 5.69051 27.3028 8.28795 23.5879 11.5356C17.8885 16.5161 13.4843 22.5194 10.0967 29.2643C8.89047 31.6239 8.13236 34.1905 7.86151 36.8317C7.67103 38.2605 7.78378 39.7138 8.19226 41.0952C8.86421 43.1548 10.2012 44.4202 12.4294 44.6416C14.5746 44.8304 16.7335 44.7903 18.8704 44.5221C24.3474 43.9463 29.7069 42.5386 34.7674 40.3465C36.1896 39.7268 37.557 38.986 38.8548 38.1322C39.2194 37.8962 39.4838 37.5316 39.5964 37.1094C40.8463 33.2079 43.4575 30.614 47.235 29.18C47.7136 29.0101 48.2148 28.9141 48.7217 28.8953C50.6923 28.7722 51.9665 30.1465 51.7611 32.1254C51.5992 33.4287 51.1274 34.6732 50.3859 35.7527C49.4619 37.1733 48.2807 38.4051 46.9043 39.3835C46.1801 39.9036 45.536 40.5187 44.8362 41.0635C44.7495 41.1174 44.6745 41.1885 44.6158 41.2726C44.5571 41.3566 44.5159 41.4518 44.4947 41.5523C44.4736 41.6529 44.4729 41.7568 44.4927 41.8576C44.5125 41.9585 44.5523 42.0542 44.6099 42.1391C44.8802 42.6844 45.2901 43.1468 45.7971 43.4782C47.1143 44.381 48.6619 44.8803 50.2536 44.9158C54.2533 45.087 58.2316 44.241 61.823 42.4554C63.056 41.8694 64.1732 41.0619 65.12 40.0724C65.6463 39.5349 65.9898 38.8426 66.1012 38.0953C66.2126 37.348 66.086 36.5843 65.7398 35.9143C64.9749 34.4332 63.8225 33.192 62.4079 32.3257C61.5201 31.7739 60.5208 31.6228 59.5077 31.5243C59.003 31.4941 58.5006 31.4319 58.0036 31.3381C56.7015 31.0358 56.3081 29.9321 57.1611 28.8777C57.967 27.9164 59.0968 27.2904 60.3328 27.1203C61.6839 26.9143 63.0643 27.0446 64.3541 27.4999C67.4423 28.5262 69.9247 30.3117 71.4461 33.3063C72.6194 35.5839 72.5637 37.8369 71.467 40.097C70.6675 41.6641 69.55 43.0437 68.1874 44.146C65.1061 46.7716 61.5131 48.3638 57.6276 49.3268C54.5263 50.1366 51.3004 50.3418 48.1228 49.9314C46.8084 49.7577 45.5214 49.4152 44.2931 48.9121C41.9256 47.9315 40.7592 46.7786 39.572 44.269Z" fill="#130E0C"/>
<path d="M100.855 36.5328C104.201 34.6032 107.655 32.8879 111.411 31.837C112.893 31.3698 114.437 31.1328 115.99 31.134C116.527 31.1457 117.062 31.2068 117.588 31.3168C119.628 31.7491 120.777 33.257 121.024 35.2604C121.09 35.9614 121.106 36.6661 121.073 37.3693C120.99 38.9319 121.083 40.4988 121.348 42.0405C121.714 43.8366 122.358 44.4552 124.133 44.8207C125.251 45.0527 126.341 44.8699 127.427 44.645C130.125 44.0791 132.701 43.116 135.288 42.1846C137.342 41.4465 139.4 40.7365 141.486 40.1003C144.375 39.1717 147.498 39.3163 150.291 40.508C151.809 41.1407 153.309 41.8155 154.796 42.515C155.639 42.9283 156.566 43.1369 157.503 43.1241C158.44 43.1113 159.361 42.8774 160.192 42.4412C161.36 41.939 162.408 41.1913 163.267 40.2479C164.147 39.1935 164.193 38.589 163.284 37.5626C160.533 34.445 157.167 32.5013 152.982 32.0725C151.028 31.8955 149.059 32.0032 147.136 32.3923C145.834 32.6349 144.515 32.8106 143.185 32.5119C141.91 32.2272 141.489 31.5101 141.928 30.2694C142.218 29.5547 142.732 28.955 143.39 28.5612C144.46 27.8828 145.668 27.4575 146.924 27.317C148.79 27.0217 150.649 27.1693 152.494 27.317C154.67 27.4947 156.814 27.9494 158.876 28.6702C162.142 29.8265 164.872 31.7702 167.312 34.1884C167.559 34.4345 167.81 34.6805 168.043 34.9406C170.48 37.6259 170.55 40.3745 168.656 43.4078C166.804 46.3672 164.022 47.9559 160.742 48.7292C158.549 49.2459 156.324 49.4954 154.075 48.9682C152.658 48.626 151.318 48.0153 150.127 47.1686C149.556 46.7714 148.971 46.3918 148.386 45.9947C146.604 44.7645 144.661 44.536 142.586 44.9859C140.899 45.4036 139.236 45.9128 137.604 46.5113C133.553 47.8722 129.364 48.7671 125.115 49.1791C124.419 49.2459 123.74 49.3583 123.026 49.3689C120.209 49.404 118.19 48.0895 116.902 45.6186C116.115 44.0159 115.615 42.286 115.422 40.508C115.276 39.0613 115.276 37.6034 115.422 36.1567C115.111 36.1029 114.792 36.1209 114.489 36.2094C110.733 36.9513 107.116 38.287 103.773 40.1671C99.5771 42.4817 95.7247 45.3805 92.3287 48.7784C91.9749 49.1422 91.5994 49.4838 91.2042 49.8012C90.2154 50.5498 89.063 50.6272 88.1125 49.9629C87.0158 49.2002 86.5702 48.5077 86.8174 47.0386C87.0402 45.6994 87.6251 44.4938 88.21 43.2953C89.8011 40.0581 91.7787 37.0565 93.6552 33.9951C98.3937 26.368 103.919 19.3489 109.566 12.4247C111.076 10.5395 112.731 8.77672 114.514 7.15252C115.601 6.12703 116.838 5.27487 118.18 4.62537C118.862 4.27439 119.645 4.17852 120.391 4.35473C122.027 4.7976 122.25 6.34763 121.522 7.3142C119.767 9.66912 117.877 11.9573 116.077 14.3016C111.547 20.1925 107.073 26.1676 102.993 32.3853C102.079 33.6866 101.285 35.0689 100.618 36.5152C100.692 36.6664 100.775 36.5539 100.855 36.5328Z" fill="#130E0C"/>
<path d="M90.3756 8.6431C90.4731 9.58155 90.0031 10.2951 89.446 10.9629C88.4102 12.1679 87.2847 13.2912 86.0793 14.323C84.2758 15.9187 82.5037 17.5531 80.5296 18.9415C80.0085 19.3555 79.4332 19.695 78.8202 19.9502C77.7757 20.3228 76.8705 19.894 76.6268 18.952C76.5663 18.6723 76.5856 18.3811 76.6825 18.112C76.8757 17.4713 77.1696 16.8661 77.5529 16.3194C79.3749 13.524 81.3606 10.841 83.4994 8.28459C84.2446 7.37314 85.0877 6.54797 86.0132 5.82422C86.8174 5.2267 87.7226 4.89983 88.6557 5.45165C89.1243 5.72186 89.5236 6.09915 89.8217 6.55328C90.1198 7.0074 90.3083 7.52572 90.3721 8.06667C90.3857 8.25853 90.3868 8.45108 90.3756 8.6431V8.6431Z" fill="#130E0C"/>
<path d="M100.855 36.5331C100.81 36.6733 100.702 36.7398 100.58 36.6768C100.458 36.6137 100.521 36.5437 100.629 36.5156L100.855 36.5331Z" fill="#130E0C"/>
</svg>
